Coordinates
version=1
nRows=102
nColumns=11
inDegrees=no

Units are S.I. units (second, meters, Newtons, ...)
If the header above contains a line with 'inDegrees', this indicates whether rotational values are in degrees (yes) or radians (no).

endheader
time	pelvis_tilt	pelvis_tx	pelvis_ty	hip_flexion_r	knee_angle_r	ankle_angle_r	hip_flexion_l	knee_angle_l	ankle_angle_l	lumbar_extension
0.01	0.00254384	0.00724609	0.955101	0.0138244	-0.178343	0.08767	0.02416	-0.132231	0.0398047	0
0.02	0.00441312	0.00762886	0.955273	0.00888739	-0.173334	0.0859122	0.0208133	-0.130343	0.0393407	0
0.03	0.00496763	0.00719946	0.95536	0.00845916	-0.172566	0.0858582	0.0205978	-0.13009	0.0382739	0
0.04	0.00446526	0.00634594	0.955412	0.0113913	-0.175146	0.0853828	0.0221618	-0.130122	0.0369087	0
0.05	0.00364917	0.00555679	0.955375	0.0149121	-0.178482	0.0859843	0.0243208	-0.130716	0.0366503	0
0.06	0.00326288	0.00501373	0.955311	0.0157345	-0.178233	0.0867579	0.0253136	-0.130564	0.0363281	0
0.07	0.00277606	0.004551	0.955254	0.0168671	-0.178493	0.0870229	0.026313	-0.13056	0.0365237	0
0.08	0.00233531	0.00393744	0.955225	0.0188601	-0.179954	0.0865801	0.0277085	-0.131039	0.03579	0
0.09	0.00293964	0.00349952	0.955319	0.0184987	-0.179483	0.0857281	0.0279028	-0.131576	0.0352765	0
0.1	0.0036741	0.00328831	0.95543	0.0180969	-0.179872	0.0862597	0.0277746	-0.132232	0.0350142	0
0.11	0.00328888	0.00292657	0.955424	0.0190913	-0.180188	0.0859938	0.0290939	-0.133116	0.0351184	0
0.12	0.00253752	0.00244892	0.955355	0.0188499	-0.176799	0.0840954	0.0307778	-0.133918	0.0350446	0
0.13	0.00186468	0.00183266	0.955328	0.018882	-0.173894	0.082134	0.0322672	-0.133777	0.0346462	0
0.14	0.00123783	0.00127879	0.955332	0.0191138	-0.171661	0.0809921	0.0334109	-0.133211	0.0338553	0
0.15	0.000499016	0.000777885	0.955332	0.0195192	-0.170015	0.0808751	0.0342058	-0.132727	0.0333016	0
0.16	0.00175313	0.000791457	0.955383	0.0183926	-0.170081	0.0806618	0.0336697	-0.134007	0.0334627	0
0.17	0.000201067	-0.000510579	0.955346	0.0204192	-0.170744	0.0806103	0.0358649	-0.134804	0.0336594	0
0.18	0.0014864	6.82328e-05	0.955329	0.0203069	-0.171725	0.0806662	0.0355462	-0.135355	0.033447	0
0.19	0.000663735	-0.000704544	0.955357	0.0207219	-0.171033	0.0797772	0.0358882	-0.134369	0.0325206	0
0.2	0.00219031	-9.20188e-05	0.955422	0.0193868	-0.170325	0.0791201	0.0345509	-0.13361	0.0321154	0
0.21	0.00230235	-0.00052465	0.955446	0.0194808	-0.170163	0.0787875	0.0343346	-0.132981	0.031721	0
0.22	0.00256337	-0.000921734	0.955434	0.0204462	-0.171655	0.0796513	0.0341187	-0.132448	0.0311491	0
0.23	0.00227871	-0.00147324	0.955356	0.0221657	-0.173202	0.0798735	0.0351361	-0.132578	0.0305626	0
0.24	0.00200716	-0.00199202	0.955335	0.0234518	-0.174035	0.0797136	0.0363704	-0.133102	0.029943	0
0.25	0.00227658	-0.00228165	0.955345	0.0241646	-0.175446	0.0801526	0.0364822	-0.133131	0.0299429	0
0.26	0.00263903	-0.00246968	0.955342	0.0246726	-0.176731	0.0807993	0.0361515	-0.132864	0.030282	0
0.27	0.00265266	-0.00285525	0.955332	0.0246726	-0.175685	0.0802567	0.0368851	-0.133519	0.0304849	0
0.28	0.00247964	-0.00334717	0.955341	0.0253928	-0.175498	0.079676	0.0381519	-0.134408	0.0302897	0
0.29	0.00266896	-0.00383987	0.955344	0.0263971	-0.176711	0.0790906	0.0389855	-0.135225	0.0300749	0
0.3	0.00295285	-0.00419917	0.955293	0.0271116	-0.177963	0.0788839	0.0392055	-0.135312	0.0299257	0
0.31	0.00315228	-0.00446665	0.955274	0.0274311	-0.178352	0.0794575	0.0389077	-0.134529	0.0294684	0
0.32	0.003769	-0.00465854	0.955334	0.0268798	-0.177959	0.0800301	0.0380392	-0.133633	0.0290398	0
0.33	0.00510569	-0.00471122	0.955413	0.0257389	-0.17845	0.0806196	0.0369618	-0.1341	0.0290273	0
0.34	0.00699956	-0.00428219	0.955557	0.0225178	-0.177576	0.0802563	0.0342672	-0.133962	0.0289725	0
0.35	0.00780265	-0.00425113	0.955656	0.0211227	-0.177274	0.0790122	0.0331769	-0.133588	0.0286229	0
0.36	0.00766236	-0.0046726	0.955674	0.0217553	-0.177835	0.0780499	0.0344526	-0.134959	0.029346	0
0.37	0.00752615	-0.00512091	0.955664	0.023177	-0.180231	0.0791854	0.0354942	-0.136146	0.0295741	0
0.38	0.00834972	-0.00501423	0.955752	0.0223581	-0.182061	0.0820081	0.033704	-0.135123	0.029021	0
0.39	0.00826043	-0.00538226	0.955791	0.0232296	-0.184407	0.0840387	0.0340174	-0.135703	0.0294965	0
0.4	0.00817375	-0.00579868	0.955788	0.0236967	-0.186714	0.0857964	0.0348161	-0.138014	0.032706	0
0.41	0.00834957	-0.00606406	0.95581	0.0231239	-0.18746	0.0853803	0.0348216	-0.140959	0.0358998	0
0.42	0.00905906	-0.00601043	0.955849	0.0206761	-0.186078	0.0840359	0.0333015	-0.141892	0.0382836	0
0.43	0.0101299	-0.00581087	0.955939	0.0167984	-0.182961	0.0845588	0.0309147	-0.14229	0.0399308	0
0.44	0.010817	-0.00577636	0.95606	0.0136342	-0.180249	0.0845173	0.0287366	-0.142056	0.0389353	0
0.45	0.0116701	-0.00562733	0.956189	0.0109622	-0.17935	0.0867526	0.025538	-0.140462	0.0380603	0
0.46	0.0123523	-0.00556306	0.956255	0.00887769	-0.179157	0.0897445	0.0228338	-0.138526	0.0389537	0
0.47	0.0128068	-0.00555342	0.956304	0.0067808	-0.178117	0.09013	0.0212663	-0.137938	0.0415877	0
0.48	0.0134257	-0.0053947	0.95643	0.00513814	-0.179129	0.0900433	0.0190968	-0.137448	0.0419372	0
0.49	0.0144544	-0.00515437	0.956615	0.0032059	-0.181031	0.091709	0.0153169	-0.135564	0.0424669	0
0.5	0.0146942	-0.00532281	0.956662	0.00194363	-0.181352	0.0949902	0.0135716	-0.135082	0.0434722	0
0.51	0.014604	-0.00543858	0.956614	0.00117256	-0.18097	0.0957854	0.0133198	-0.136168	0.0464091	0
0.52	0.0142822	-0.00547348	0.956622	0.00110969	-0.182169	0.0958566	0.0134089	-0.137263	0.0480196	0
0.53	0.0135988	-0.00587618	0.956713	0.00188224	-0.184192	0.0953274	0.0140003	-0.138743	0.0476733	0
0.54	0.0131186	-0.00624732	0.956735	0.0017732	-0.184794	0.0948339	0.0141592	-0.140334	0.0485164	0
0.55	0.0123843	-0.00657534	0.956668	0.00178324	-0.18528	0.0943697	0.0141997	-0.14081	0.0511287	0
0.56	0.0118229	-0.00672581	0.956735	0.00145293	-0.186102	0.095927	0.0130952	-0.139543	0.0524215	0
0.57	0.011541	-0.00677098	0.956941	7.97343e-05	-0.185705	0.0964	0.0110573	-0.137813	0.0529888	0
0.58	0.0113092	-0.00689004	0.957088	-0.000961672	-0.185763	0.097715	0.00887449	-0.136351	0.0526282	0
0.59	0.0111604	-0.00703474	0.957055	-0.0010585	-0.18753	0.101627	0.00782249	-0.137064	0.0542522	0
0.6	0.0109244	-0.00711426	0.957113	-0.00245482	-0.186691	0.102965	0.007223	-0.138009	0.0556886	0
0.61	0.0102816	-0.00728912	0.957186	-0.00452649	-0.183148	0.101543	0.00713859	-0.138989	0.056823	0
0.62	0.00943514	-0.00764188	0.957198	-0.00544566	-0.181535	0.101387	0.00722279	-0.139814	0.0561263	0
0.63	0.00848266	-0.0081084	0.957264	-0.00579142	-0.18153	0.103051	0.00609333	-0.137708	0.0547813	0
0.64	0.00742529	-0.00840215	0.957367	-0.00643987	-0.181005	0.102887	0.00457632	-0.135047	0.0552147	0
0.65	0.00630838	-0.00883827	0.957434	-0.00605577	-0.182263	0.102403	0.00428173	-0.133986	0.0579108	0
0.66	0.00544866	-0.00932949	0.957423	-0.00598745	-0.18336	0.102499	0.00383242	-0.132705	0.0606117	0
0.67	0.00409408	-0.00999486	0.957379	-0.00580462	-0.182602	0.103509	0.00411123	-0.132354	0.060685	0
0.68	0.00195084	-0.0108641	0.957331	-0.00400571	-0.182491	0.104367	0.00518128	-0.131667	0.0589825	0
0.69	-0.000417723	-0.0118099	0.957235	-0.000519652	-0.185778	0.106976	0.00801034	-0.133544	0.0609789	0
0.7	-0.00272275	-0.0129577	0.957106	0.00299019	-0.188925	0.110161	0.0111078	-0.13632	0.0624826	0
0.71	-0.00461203	-0.0140206	0.957073	0.00477552	-0.189442	0.110414	0.0115731	-0.135263	0.0636555	0
0.72	-0.00637168	-0.0149482	0.957044	0.0057824	-0.189159	0.11048	0.0114396	-0.132721	0.0646214	0
0.73	-0.00851052	-0.0158901	0.957065	0.00709198	-0.189104	0.110282	0.0123736	-0.131611	0.0650237	0
0.74	-0.0109608	-0.0168989	0.957078	0.00916848	-0.190092	0.109984	0.0133566	-0.129849	0.0641474	0
0.75	-0.0137267	-0.0180552	0.957007	0.0123402	-0.191942	0.111131	0.0146964	-0.127918	0.0638702	0
0.76	-0.0164564	-0.0191168	0.956876	0.0154702	-0.193945	0.113372	0.0166424	-0.127211	0.0648697	0
0.77	-0.0197071	-0.0205021	0.956769	0.0195378	-0.196009	0.114743	0.0202835	-0.128008	0.065232	0
0.78	-0.0223894	-0.0216388	0.956804	0.0224832	-0.197196	0.114784	0.0217656	-0.127027	0.0655197	0
0.79	-0.0258263	-0.0230818	0.956721	0.0268835	-0.198648	0.113724	0.0245556	-0.125677	0.0650473	0
0.8	-0.0295742	-0.0247578	0.956652	0.0310473	-0.198844	0.114488	0.0279994	-0.124028	0.0641264	0
0.81	-0.0323593	-0.0261191	0.956718	0.0327902	-0.197673	0.116732	0.0292068	-0.121955	0.065336	0
0.82	-0.035331	-0.0276235	0.956704	0.0354364	-0.197344	0.115163	0.0317097	-0.121485	0.0650348	0
0.83	-0.0389865	-0.029257	0.956648	0.0392553	-0.197594	0.112215	0.0351806	-0.121375	0.0632789	0
0.84	-0.0448366	-0.0318244	0.956453	0.0478923	-0.200735	0.112751	0.0423494	-0.12199	0.061545	0
0.85	-0.0510117	-0.0345021	0.956125	0.0566085	-0.203441	0.114871	0.0500903	-0.121874	0.059492	0
0.86	-0.0553864	-0.0366853	0.955917	0.0620104	-0.204773	0.117029	0.0540958	-0.120002	0.0589864	0
0.87	-0.0586669	-0.0388106	0.955869	0.0656563	-0.204582	0.116225	0.0577229	-0.11987	0.0606225	0
0.88	-0.0633523	-0.0413734	0.955857	0.07216	-0.206386	0.115516	0.0630064	-0.11918	0.058973	0
0.89	-0.06958	-0.0442262	0.95577	0.0804772	-0.207946	0.114171	0.070398	-0.119053	0.055798	0
0.9	-0.0743199	-0.0462718	0.95574	0.085537	-0.208406	0.114256	0.0745678	-0.118094	0.0564019	0
0.91	-0.0790566	-0.0483698	0.955621	0.0905883	-0.208197	0.113803	0.0797528	-0.118089	0.0570482	0
0.92	-0.0848374	-0.0511276	0.955426	0.0984263	-0.209583	0.112604	0.085946	-0.116379	0.0545882	0
0.93	-0.0902549	-0.054139	0.955298	0.106587	-0.211912	0.111698	0.0926471	-0.115347	0.0514987	0
0.94	-0.0949891	-0.0569333	0.955306	0.111831	-0.210616	0.110199	0.0979238	-0.114144	0.0490593	0
0.95	-0.0998469	-0.0597712	0.955299	0.117499	-0.209675	0.10692	0.103534	-0.113425	0.0486031	0
0.96	-0.10527	-0.0627202	0.955206	0.125183	-0.211311	0.105406	0.110443	-0.113392	0.0491723	0
0.97	-0.110326	-0.0655393	0.955156	0.131076	-0.210563	0.105323	0.115954	-0.112047	0.0472706	0
0.98	-0.115543	-0.0686809	0.955107	0.137107	-0.209603	0.104785	0.12273	-0.112934	0.0449677	0
0.99	-0.12032	-0.0716719	0.955017	0.143339	-0.210244	0.104468	0.128621	-0.11277	0.0428696	0
1	-0.125253	-0.074573	0.954918	0.149003	-0.209223	0.102483	0.134582	-0.11261	0.0427636	0
1.01	-0.130472	-0.0776458	0.954848	0.154008	-0.206527	0.0993746	0.14065	-0.111687	0.0414925	0
1.02	-0.135675	-0.0808616	0.954822	0.159403	-0.204618	0.0991244	0.146954	-0.112007	0.0412921	0
